<?xml version="1.0" encoding="utf-8"?>
<svg width="120.99999999999999" height="92.99999999999999" data-name="Layer 1" xmlns="http://www.w3.org/2000/svg">
  <g>
    <title>Layer 1</title>
    <path id="svg_1" fill="#d7282f" d="m92.06,72.7c-1.7,4.81 -6.56,8.41 -10.8,8l-55.93,-3.31l-17.91,13.88l3,-15.41l-2.07,-0.18c-4.24,-0.42 -6.89,-4.71 -5.89,-9.53l9.16,-44.26c1,-4.83 5.5,-9.29 10,-9.91l92.9,-10.64c4.49,-0.62 6.78,2.81 5.08,7.62l-27.54,63.74z" class="cls-1"/>
    <path id="svg_2" fill="#fff" d="m99.09,18.25a59.13,59.13 0 0 0 -15.18,7.2a110.62,110.62 0 0 0 -13.13,10.27a216.85,216.85 0 0 0 -26.58,28.69l-17.83,-24.28l9.63,-6.44l9.54,14.31a167.94,167.94 0 0 1 21.71,-16.88a103.91,103.91 0 0 1 15.3,-8.23a61,61 0 0 1 16.54,-4.64z" class="cls-2"/>
  </g>
</svg>