<svg width="94" height="101" xmlns="http://www.w3.org/2000/svg">

 <g>
  <title>Layer 1</title>
  <g stroke="null" id="svg_1">
   <g stroke="null" id="truth-social-logo-blue">
    <g stroke="null" id="Group_17" data-name="Group 17">
     <g stroke="null" id="Group_16" data-name="Group 16">
      <g stroke="null" id="Group_14" data-name="Group 14">
       <path stroke="null" id="Path_22820" data-name="Path 22820" d="m33.38745,25.96624l-29.25421,0l0,-23.00294l85.55619,0l0,23.00294l-29.25421,0l0,71.72018l-27.03276,0l0,-71.72018l-0.01501,0z" fill="#000"/>
       <path stroke="null" id="Path_22821" data-name="Path 22821" d="m96.65401,2.9633l46.1253,0a57.0945,55.44903 0 0 1 19.09254,2.71137a32.78754,31.8426 0 0 1 12.68333,7.58018q8.64568,8.11225 8.63067,22.05541l0,0.27697q0,10.95482 -5.43357,18.13413a34.27952,33.29158 0 0 1 -14.63461,10.96211l23.26528,33.01752l-31.2055,0l-19.6479,-28.68807l-11.84278,0l0,28.68807l-27.03276,0l0,-94.7377zm44.86447,45.46651c4.63805,0 8.2254,-1.02041 10.73205,-3.04665a10.40483,10.10497 0 0 0 3.76747,-8.19243l0,-0.27697a10.08963,9.79884 0 0 0 -3.90256,-8.45482a17.83021,17.31634 0 0 0 -10.73205,-2.76968l-17.69662,0l0,22.72597l17.83171,0l0,0.01458z" fill="#000"/>
       <path stroke="null" id="Path_22822" data-name="Path 22822" d="m235.84042,99.45027a62.4305,60.63125 0 0 1 -18.80735,-2.5656a36.49797,35.4461 0 0 1 -14.21434,-7.91546a36.0792,35.03939 0 0 1 -8.99091,-13.52771a56.96542,55.32367 0 0 1 -3.13706,-19.28573l0,-53.19247l27.58812,0l0,52.63853q0,10.27698 4.83317,15.21867a17.11124,16.61809 0 0 0 12.99854,4.9417a17.47898,16.97523 0 0 0 12.99854,-4.73761q4.84068,-4.7449 4.83317,-14.7522l0,-53.30909l27.58812,0l0,52.50734a57.36468,55.71142 0 0 1 -3.27215,19.82509a35.37824,34.35863 0 0 1 -23.55047,21.58894a63.04141,61.22455 0 0 1 -18.86739,2.5656z" fill="#000"/>
       <path stroke="null" id="Path_22823" data-name="Path 22823" d="m316.5034,25.96624l-29.25421,0l0,-23.00294l85.55619,0l0,23.00294l-29.25421,0l0,71.72018l-27.03276,0l0,-71.72018l-0.01501,0z" fill="#000"/>
       <path stroke="null" id="Path_22824" data-name="Path 22824" d="m379.76996,2.9633l27.03276,0l0,35.45193l34.68778,0l0,-35.45193l27.03276,0l0,94.72312l-27.03276,0l0,-35.99129l-34.68778,0l0,35.99129l-27.03276,0l0,-94.72312z" fill="#000"/>
      </g>
      <g stroke="null" id="Group_15" data-name="Group 15">
       <path stroke="null" id="Path_22825" data-name="Path 22825" d="m313.93672,139.81474a14.88378,14.45482 0 0 1 -5.52363,-0.9621a15.93447,15.47523 0 0 1 -4.77314,-2.95919l1.77116,-2.02624a14.93331,14.50293 0 0 0 3.99262,2.60933a11.58911,11.25511 0 0 0 4.65306,0.86006a6.44523,6.25948 0 0 0 4.08268,-1.16618a3.76147,3.65306 0 0 0 1.53101,-2.98834l0,-0.07289a4.01664,3.90088 0 0 0 -0.28519,-1.51604a3.18959,3.09767 0 0 0 -1.00566,-1.23907a7.12068,6.91546 0 0 0 -2.01132,-1.02041a24.32948,23.6283 0 0 0 -3.27215,-0.87464a26.86765,26.09332 0 0 1 -3.76747,-1.04956a9.66635,9.38776 0 0 1 -2.65674,-1.42857a5.37653,5.22158 0 0 1 -1.54602,-1.95335a6.77695,6.58164 0 0 1 -0.51034,-2.62391l0,-0.07289a6.18106,6.00292 0 0 1 0.6154,-2.65306a6.52629,6.3382 0 0 1 1.72613,-2.1137a8.38301,8.14141 0 0 1 2.62673,-1.39942a10.18119,9.88776 0 0 1 3.31718,-0.5102a13.63045,13.23762 0 0 1 4.84818,0.75802a14.69765,14.27407 0 0 1 4.02264,2.25948l-1.65108,2.12828a12.30808,11.95336 0 0 0 -3.54233,-2.02624a10.73055,10.42129 0 0 0 -3.72244,-0.62682a6.07899,5.9038 0 0 0 -3.93258,1.13703a3.58886,3.48543 0 0 0 -1.44095,2.81341l0,0.07289a4.14272,4.02333 0 0 0 0.28519,1.55977a3.20611,3.11371 0 0 0 1.05069,1.25365a8.10532,7.87173 0 0 0 2.08637,1.04956a23.63903,22.95775 0 0 0 3.42225,0.88921a14.90629,14.47669 0 0 1 6.21408,2.52187a5.56415,5.4038 0 0 1 1.99631,4.40234l0,0.07289a6.55931,6.37027 0 0 1 -0.64542,2.85715a6.77995,6.58455 0 0 1 -1.77116,2.18659a7.7646,7.54082 0 0 1 -2.70177,1.39942a12.93249,12.55978 0 0 1 -3.48229,0.4519z" fill="#000"/>
       <path stroke="null" id="Path_22826" data-name="Path 22826" d="m345.4274,139.88763a12.65931,12.29447 0 0 1 -5.23844,-1.02041a12.36812,12.01167 0 0 1 -4.05266,-2.74053a12.60828,12.24491 0 0 1 -2.61172,-4.02333a13.49086,13.10205 0 0 1 -0.9156,-4.8105l0,-0.07289a13.58242,13.19097 0 0 1 0.93061,-4.82508a12.80941,12.44024 0 0 1 2.62673,-4.0379a12.98053,12.60643 0 0 1 4.06767,-2.76968a13.53289,13.14287 0 0 1 10.49189,-0.01458a12.36812,12.01167 0 0 1 4.05266,2.74053a12.60828,12.24491 0 0 1 2.61172,4.02333a13.49086,13.10205 0 0 1 0.9156,4.8105c0.03002,0.02915 0.03002,0.04373 0,0.07289a13.58242,13.19097 0 0 1 -0.93061,4.82508a12.80941,12.44024 0 0 1 -2.62673,4.0379a12.98053,12.60643 0 0 1 -4.06767,2.76968a12.73587,12.36882 0 0 1 -5.25345,1.03499zm0.07505,-2.55102a9.66635,9.38776 0 0 0 3.97761,-0.78717a9.32713,9.05832 0 0 0 3.12205,-2.15744a10.30727,10.01021 0 0 0 2.04134,-3.17785a10.84462,10.53208 0 0 0 0.73548,-3.92129l0,-0.07289a10.97971,10.66328 0 0 0 -0.73548,-3.93586a10.26074,9.96502 0 0 0 -2.07136,-3.207a10.10914,9.81779 0 0 0 -3.15207,-2.17201a9.4382,9.16619 0 0 0 -3.97761,-0.80175a9.66635,9.38776 0 0 0 -3.97761,0.78717a9.32713,9.05832 0 0 0 -3.12205,2.15744a10.30727,10.01021 0 0 0 -2.04134,3.17785a10.84462,10.53208 0 0 0 -0.73548,3.92129l0,0.07289a10.97971,10.66328 0 0 0 0.73548,3.93586a10.26074,9.96502 0 0 0 2.07136,3.207a10.10914,9.81779 0 0 0 3.15207,2.17201a9.62282,9.34549 0 0 0 3.97761,0.80175z" fill="#000"/>
       <path stroke="null" id="Path_22827" data-name="Path 22827" d="m381.27094,139.88763a12.3276,11.97231 0 0 1 -9.03593,-3.6589a12.55425,12.19243 0 0 1 -2.64174,-4.00875a13.61694,13.2245 0 0 1 -0.96063,-4.92712l0,-0.07289a13.28222,12.89943 0 0 1 0.96063,-4.89796a12.84694,12.47669 0 0 1 2.64174,-4.0379a12.20001,11.84841 0 0 1 4.03765,-2.72595a12.52122,12.16036 0 0 1 5.11836,-0.99125a15.25452,14.81488 0 0 1 3.12205,0.27697a13.31675,12.93296 0 0 1 2.5817,0.78717a10.82511,10.51313 0 0 1 2.19144,1.22449a19.76348,19.1939 0 0 1 1.95128,1.58892l-1.95128,2.02624a16.2857,15.81634 0 0 0 -3.48229,-2.41983a9.72189,9.4417 0 0 0 -11.40749,1.95335a10.31928,10.02188 0 0 0 -2.05635,3.207a10.97971,10.66328 0 0 0 -0.73548,3.93586l0,0.07289a11.02624,10.70846 0 0 0 0.73548,3.96502a10.22321,9.92858 0 0 0 2.05635,3.207a9.7399,9.45919 0 0 0 3.09203,2.15744a9.22806,8.96211 0 0 0 3.87254,0.78717a9.68436,9.40526 0 0 0 4.47294,-0.93295a15.39411,14.95045 0 0 0 3.67742,-2.60933l1.87623,1.77843a16.52886,16.05249 0 0 1 -2.04134,1.76385a12.15799,11.80759 0 0 1 -2.2815,1.34111a12.31559,11.96065 0 0 1 -2.62673,0.87464a13.13363,12.75511 0 0 1 -3.16708,0.33528z" fill="#000"/>
       <path stroke="null" id="Path_22828" data-name="Path 22828" d="m401.98455,114.97507l2.85187,0l0,24.48982l-2.85187,0l0,-24.48982z" fill="#000"/>
       <path stroke="null" id="Path_22829" data-name="Path 22829" d="m426.94594,114.80014l2.67175,0l11.49755,24.66475l-3.06201,0l-2.95694,-6.47231l-13.71901,0l-2.98696,6.47231l-2.91191,0l11.46753,-24.66475zm7.02461,15.7143l-5.73377,-12.49272l-5.76379,12.49272l11.49755,0z" fill="#000"/>
       <path stroke="null" id="Path_22830" data-name="Path 22830" d="m451.47205,114.97507l2.85187,0l0,21.9388l14.19933,0l0,2.55102l-17.03619,0l0,-24.48982l-0.01501,0z" fill="#000"/>
      </g>
     </g>
    </g>
   </g>
  </g>
 </g>
</svg>