<svg width="216" height="232" xmlns="http://www.w3.org/2000/svg">

 <g>
  <title>Layer 1</title>
  <g stroke="null" id="svg_1">
   <g stroke="null" id="truth-social-logo-blue">
    <g stroke="null" id="Group_17" data-name="Group 17">
     <g stroke="null" id="Group_16" data-name="Group 16">
      <g stroke="null" id="Group_14" data-name="Group 14">
       <path stroke="null" id="Path_22820" data-name="Path 22820" d="m81.88917,60.58596l-62.02571,0l0,-53.10634l181.39895,0l0,53.10634l-62.02571,0l0,165.5787l-57.3157,0l0,-165.5787l-0.03182,0z" fill="#0f206c"/>
       <path stroke="null" id="Path_22821" data-name="Path 22821" d="m216.02892,7.47962l97.79631,0a121.05356,128.01387 0 0 1 40.48061,6.25968a69.51717,73.51425 0 0 1 26.8916,17.50019q18.33084,18.72857 18.29902,50.91882l0,0.63943q0,25.29114 -11.52042,41.86583a72.68051,76.85948 0 0 1 -31.02877,25.30796l49.32778,76.22678l-66.16288,0l-41.65811,-66.23148l-25.10943,0l0,66.23148l-57.3157,0l0,-218.71869zm95.12306,104.96747c9.83373,0 17.43976,-2.35579 22.75443,-7.03373a22.06066,23.3291 0 0 0 7.98792,-18.91366l0,-0.63943a21.39235,22.62236 0 0 0 -8.27434,-19.51944a37.80418,39.97783 0 0 0 -22.75443,-6.3943l-37.52094,0l0,52.46691l37.80736,0l0,0.03365z" fill="#0f206c"/>
       <path stroke="null" id="Path_22822" data-name="Path 22822" d="m511.13637,230.23682a132.36713,139.97794 0 0 1 -39.87594,-5.92314a77.38415,81.83357 0 0 1 -30.13768,-18.27423a76.49625,80.89462 0 0 1 -19.0628,-31.2311a120.77988,127.72445 0 0 1 -6.65129,-44.52452l0,-122.8042l58.4932,0l0,121.52534q0,23.72622 10.24745,35.13499a36.27979,38.3658 0 0 0 27.55991,11.40878a37.05949,39.19032 0 0 0 27.55991,-10.93762q10.26336,-10.95444 10.24745,-34.05806l0,-123.07343l58.4932,0l0,121.22245a121.6264,128.61965 0 0 1 -6.93771,45.76972a75.01006,79.32297 0 0 1 -49.93245,49.84188a133.66238,141.34767 0 0 1 -40.00324,5.92314z" fill="#0f206c"/>
       <path stroke="null" id="Path_22823" data-name="Path 22823" d="m682.16057,60.58596l-62.02571,0l0,-53.10634l181.39895,0l0,53.10634l-62.02571,0l0,165.5787l-57.3157,0l0,-165.5787l-0.03182,0z" fill="#0f206c"/>
       <path stroke="null" id="Path_22824" data-name="Path 22824" d="m816.30032,7.47962l57.3157,0l0,81.84703l73.54614,0l0,-81.84703l57.3157,0l0,218.68504l-57.3157,0l0,-83.09224l-73.54614,0l0,83.09224l-57.3157,0l0,-218.68504z" fill="#0f206c"/>
      </g>
      <g stroke="null" id="Group_15" data-name="Group 15">
       <path stroke="null" id="Path_22825" data-name="Path 22825" d="m676.7186,323.42532a31.55705,33.37151 0 0 1 -11.71137,-2.22118a33.78476,35.72731 0 0 1 -10.12015,-6.8318l3.75528,-4.67793a31.66207,33.48257 0 0 0 8.46528,6.0241a24.5716,25.98441 0 0 0 9.86556,1.9856a13.66539,14.45112 0 0 0 8.65623,-2.69234a7.97519,8.43374 0 0 0 3.24609,-6.89911l0,-0.16827a8.5162,9.00587 0 0 0 -0.60466,-3.50004a6.76268,7.15152 0 0 0 -2.13223,-2.86061a15.09748,15.96556 0 0 0 -4.26447,-2.35579a51.58413,54.5501 0 0 0 -6.93771,-2.01925a56.96563,60.24103 0 0 1 -7.98792,-2.4231a20.4949,21.67331 0 0 1 -5.63291,-3.29811a11.39949,12.05494 0 0 1 -3.27791,-4.50966a14.36871,15.19487 0 0 1 -1.08203,-6.05776l0,-0.16827a13.10528,13.8588 0 0 1 1.3048,-6.12507a13.83724,14.63285 0 0 1 3.6598,-4.87986a17.77391,18.79587 0 0 1 5.56927,-3.2308a21.58647,22.82765 0 0 1 7.03319,-1.1779a28.89972,30.56139 0 0 1 10.27927,1.75002a31.16243,32.9542 0 0 1 8.52893,5.2164l-3.50068,4.91351a26.09599,27.59645 0 0 0 -7.51055,-4.67793a22.75125,24.05939 0 0 0 -7.89245,-1.44713a12.88887,13.62995 0 0 0 -8.33799,2.62503a7.60921,8.04672 0 0 0 -3.05514,6.49526l0,0.16827a8.78353,9.28856 0 0 0 0.60466,3.601a6.79769,7.18854 0 0 0 2.22771,2.89426a17.18516,18.17327 0 0 0 4.42359,2.4231a50.12021,53.00201 0 0 0 7.25596,2.05291a31.60479,33.42199 0 0 1 13.17529,5.82218a11.7973,12.47561 0 0 1 4.23264,10.16357l0,0.16827a13.90725,14.70689 0 0 1 -1.36845,6.59622a14.37507,15.20161 0 0 1 -3.75528,5.04813a16.46275,17.40932 0 0 1 -5.72839,3.2308a27.41988,28.99646 0 0 1 -7.38326,1.04328z" fill="#0f206c"/>
       <path stroke="null" id="Path_22826" data-name="Path 22826" d="m743.48614,323.59359a26.84068,28.38396 0 0 1 -11.10671,-2.35579a26.22329,27.73107 0 0 1 -8.59258,-6.32699a26.73248,28.26953 0 0 1 -5.53744,-9.28856a28.60375,30.2484 0 0 1 -1.94129,-11.10589l0,-0.16827a28.79788,30.45369 0 0 1 1.97311,-11.13954a27.15892,28.7205 0 0 1 5.56927,-9.32222a27.52172,29.10416 0 0 1 8.62441,-6.3943a28.69286,30.34263 0 0 1 22.24524,-0.03365a26.22329,27.73107 0 0 1 8.59258,6.32699a26.73248,28.26953 0 0 1 5.53744,9.28856a28.60375,30.2484 0 0 1 1.94129,11.10589c0.06365,0.06731 0.06365,0.10096 0,0.16827a28.79788,30.45369 0 0 1 -1.97311,11.13954a27.15892,28.7205 0 0 1 -5.56927,9.32222a27.52172,29.10416 0 0 1 -8.62441,6.3943a27.00298,28.55559 0 0 1 -11.13853,2.38945zm0.15912,-5.88949a20.4949,21.67331 0 0 0 8.43346,-1.81733a19.77567,20.91272 0 0 0 6.61947,-4.98082a21.8538,23.11034 0 0 0 4.32812,-7.33662a22.99311,24.31516 0 0 0 1.55939,-9.05298l0,-0.16827a23.27953,24.61805 0 0 0 -1.55939,-9.08664a21.75514,23.00602 0 0 0 -4.39176,-7.40393a21.43372,22.66611 0 0 0 -6.68312,-5.01448a20.01117,21.16177 0 0 0 -8.43346,-1.85098a20.4949,21.67331 0 0 0 -8.43346,1.81733a19.77567,20.91272 0 0 0 -6.61947,4.98082a21.8538,23.11034 0 0 0 -4.32812,7.33662a22.99311,24.31516 0 0 0 -1.55939,9.05298l0,0.16827a23.27953,24.61805 0 0 0 1.55939,9.08664a21.75514,23.00602 0 0 0 4.39176,7.40393a21.43372,22.66611 0 0 0 6.68312,5.01448a20.40261,21.57571 0 0 0 8.43346,1.85098z" fill="#0f206c"/>
       <path stroke="null" id="Path_22827" data-name="Path 22827" d="m819.48276,323.59359a26.13736,27.6402 0 0 1 -19.15827,-8.44721a26.61791,28.14838 0 0 1 -5.60109,-9.25491a28.87107,30.5311 0 0 1 -2.03676,-11.37512l0,-0.16827a28.16139,29.78061 0 0 1 2.03676,-11.30781a27.23848,28.80464 0 0 1 5.60109,-9.32222a25.86685,27.35414 0 0 1 8.56076,-6.29334a26.5479,28.07434 0 0 1 10.85211,-2.28849a32.34311,34.20277 0 0 1 6.61947,0.63943a28.23459,29.85801 0 0 1 5.47379,1.81733a22.95174,24.27141 0 0 1 4.64636,2.82695a41.90316,44.31249 0 0 1 4.13717,3.66831l-4.13717,4.67793a34.52945,36.51481 0 0 0 -7.38326,-5.5866a20.61265,21.79783 0 0 0 -24.18653,4.50966a21.87926,23.13727 0 0 0 -4.35994,7.40393a23.27953,24.61805 0 0 0 -1.55939,9.08664l0,0.16827a23.37819,24.72238 0 0 0 1.55939,9.15394a21.67558,22.92188 0 0 0 4.35994,7.40393a20.65084,21.83821 0 0 0 6.55582,4.98082a19.56563,20.69061 0 0 0 8.21069,1.81733a20.53309,21.71369 0 0 0 9.48366,-2.15387a32.63908,34.51575 0 0 0 7.79697,-6.0241l3.97805,4.10581a35.045,37.06001 0 0 1 -4.32812,4.07216a25.77775,27.25991 0 0 1 -4.83731,3.09619a26.1119,27.61328 0 0 1 -5.56927,2.01925a27.84633,29.44743 0 0 1 -6.71494,0.77405z" fill="#0f206c"/>
       <path stroke="null" id="Path_22828" data-name="Path 22828" d="m863.4004,266.07855l6.04663,0l0,56.53907l-6.04663,0l0,-56.53907z" fill="#0f206c"/>
       <path stroke="null" id="Path_22829" data-name="Path 22829" d="m916.32433,265.6747l5.66474,0l24.37747,56.94292l-6.49217,0l-6.2694,-14.94247l-29.08748,0l-6.33305,14.94247l-6.17393,0l24.31382,-56.94292zm14.89381,36.27924l-12.15691,-28.84166l-12.22056,28.84166l24.37747,0z" fill="#0f206c"/>
       <path stroke="null" id="Path_22830" data-name="Path 22830" d="m968.32537,266.07855l6.04663,0l0,50.64958l30.10586,0l0,5.88949l-36.12067,0l0,-56.53907l-0.03182,0z" fill="#0f206c"/>
      </g>
     </g>
    </g>
   </g>
  </g>
 </g>
</svg>