<svg width="216" height="232" xmlns="http://www.w3.org/2000/svg">

 <g>
  <title>Layer 1</title>
  <g stroke="null" id="svg_1">
   <g stroke="null" id="truth-social-logo-blue">
    <g stroke="null" id="Group_17" data-name="Group 17">
     <g stroke="null" id="Group_16" data-name="Group 16">
      <g stroke="null" id="Group_14" data-name="Group 14">
       <path stroke="null" id="Path_22820" data-name="Path 22820" d="m77.81164,60.84313l-67.24015,0l0,-52.73456l196.64899,0l0,52.73456l-67.24015,0l0,164.41954l-62.13418,0l0,-164.41954l-0.0345,0z" fill="#0f206c"/>
       <path stroke="null" id="Path_22821" data-name="Path 22821" d="m223.22839,8.10857l106.01796,0a131.23043,127.11769 0 0 1 43.88377,6.21586a75.36141,72.9996 0 0 1 29.15235,17.37767q19.8719,18.59745 19.8374,50.56235l0,0.63495q0,25.11408 -12.48894,41.57275a78.7907,76.32141 0 0 1 -33.63733,25.13079l53.47473,75.69314l-71.72513,0l-45.16027,-65.76782l-27.22036,0l0,65.76782l-62.13418,0l0,-217.18752zm103.11997,104.23263c10.66045,0 18.9059,-2.3393 24.66737,-6.98449a23.91528,23.16578 0 0 0 8.65946,-18.78126l0,-0.63495a23.19078,22.46399 0 0 0 -8.96995,-19.38279a40.98234,39.69796 0 0 0 -24.66737,-6.34954l-40.67529,0l0,52.09961l40.98579,0l0,0.03342z" fill="#0f206c"/>
       <path stroke="null" id="Path_22822" data-name="Path 22822" d="m543.14525,229.30632a143.49511,138.99801 0 0 1 -43.22828,-5.88167a83.88977,81.26068 0 0 1 -32.67133,-18.1463a82.92722,80.3283 0 0 1 -20.66539,-31.01247a130.93373,126.83029 0 0 1 -7.21046,-44.21282l0,-121.94449l63.41067,0l0,120.67458q0,23.56012 11.10894,34.88902a39.3298,38.09721 0 0 0 29.87685,11.32891a40.17504,38.91597 0 0 0 29.87685,-10.86105q11.12619,-10.87776 11.10894,-33.81963l0,-122.21184l63.41067,0l0,120.37382a131.85142,127.71923 0 0 1 -7.52096,45.4493a81.31608,78.76765 0 0 1 -54.13022,49.49295a144.89926,140.35814 0 0 1 -43.36628,5.88167z" fill="#0f206c"/>
       <path stroke="null" id="Path_22823" data-name="Path 22823" d="m728.5473,60.84313l-67.24015,0l0,-52.73456l196.64899,0l0,52.73456l-67.24015,0l0,164.41954l-62.13418,0l0,-164.41954l-0.0345,0z" fill="#0f206c"/>
       <path stroke="null" id="Path_22824" data-name="Path 22824" d="m873.96406,8.10857l62.13418,0l0,81.27405l79.72909,0l0,-81.27405l62.13418,0l0,217.1541l-62.13418,0l0,-82.51054l-79.72909,0l0,82.51054l-62.13418,0l0,-217.1541z" fill="#0f206c"/>
      </g>
      <g stroke="null" id="Group_15" data-name="Group 15">
       <path stroke="null" id="Path_22825" data-name="Path 22825" d="m722.64783,321.84244a34.21002,33.13789 0 0 1 -12.69593,-2.20563a36.62501,35.47719 0 0 1 -10.97094,-6.78398l4.07098,-4.64519a34.32387,33.24817 0 0 0 9.17695,5.98193a26.63731,25.80251 0 0 0 10.69495,1.9717a14.81422,14.34995 0 0 0 9.38395,-2.67349a8.64566,8.3747 0 0 0 3.51898,-6.85081l0,-0.16709a9.23215,8.94282 0 0 0 -0.6555,-3.47553a7.33121,7.10145 0 0 0 -2.31149,-2.84058a16.36672,15.85379 0 0 0 -4.62298,-2.3393a55.92076,54.16822 0 0 0 -7.52096,-2.00512a61.75468,59.8193 0 0 1 -8.65946,-2.40614a22.21789,21.52158 0 0 1 -6.10647,-3.27502a12.35784,11.97054 0 0 1 -3.55348,-4.47809a15.57667,15.0885 0 0 1 -1.17299,-6.01535l0,-0.16709a14.20703,13.76178 0 0 1 1.41449,-6.08219a15.00052,14.53041 0 0 1 3.96748,-4.8457a19.26815,18.66429 0 0 1 6.03747,-3.20819a23.40123,22.66784 0 0 1 7.62446,-1.16965a31.32929,30.34744 0 0 1 11.14344,1.73777a33.78223,32.7235 0 0 1 9.24595,5.17988l-3.79498,4.87912a28.28985,27.40326 0 0 0 -8.14196,-4.64519a24.66392,23.89096 0 0 0 -8.55596,-1.437a13.97243,13.53454 0 0 0 -9.03895,2.60665a8.24891,7.99039 0 0 0 -3.31198,6.44979l0,0.16709a9.52195,9.22354 0 0 0 0.6555,3.57579a7.36916,7.13821 0 0 0 2.41499,2.874a18.6299,18.04605 0 0 0 4.79548,2.40614a54.33377,52.63096 0 0 0 7.86596,2.03853a34.26177,33.18802 0 0 1 14.28293,5.78142a12.78908,12.38828 0 0 1 4.58848,10.09242l0,0.16709a15.07642,14.60393 0 0 1 -1.48349,6.55005a15.58357,15.09518 0 0 1 -4.07098,5.01279a17.84676,17.28744 0 0 1 -6.20997,3.20819a29.72505,28.79347 0 0 1 -8.00396,1.03598z" fill="#0f206c"/>
       <path stroke="null" id="Path_22826" data-name="Path 22826" d="m795.02846,322.00954a29.09715,28.18525 0 0 1 -12.04044,-2.3393a28.42785,27.53693 0 0 1 -9.31495,-6.2827a28.97985,28.07163 0 0 1 -6.00297,-9.22354a31.00844,30.03664 0 0 1 -2.10449,-11.02814l0,-0.16709a31.21889,30.2405 0 0 1 2.13899,-11.06156a29.44215,28.51944 0 0 1 6.03747,-9.25695a29.83545,28.90041 0 0 1 9.34945,-6.34954a31.10504,30.13021 0 0 1 24.11538,-0.03342a28.42785,27.53693 0 0 1 9.31495,6.2827a28.97985,28.07163 0 0 1 6.00297,9.22354a31.00844,30.03664 0 0 1 2.10449,11.02814c0.069,0.06684 0.069,0.10026 0,0.16709a31.21889,30.2405 0 0 1 -2.13899,11.06156a29.44215,28.51944 0 0 1 -6.03747,9.25695a29.83545,28.90041 0 0 1 -9.34945,6.34954a29.2731,28.35569 0 0 1 -12.07494,2.37272zm0.1725,-5.84826a22.21789,21.52158 0 0 0 9.14245,-1.8046a21.43819,20.76632 0 0 0 7.17596,-4.94595a23.69103,22.94856 0 0 0 4.69198,-7.28526a24.92612,24.14494 0 0 0 1.69049,-8.9896l0,-0.16709a25.23662,24.44571 0 0 0 -1.69049,-9.02302a23.58408,22.84496 0 0 0 -4.76098,-7.35209a23.23563,22.50743 0 0 0 -7.24496,-4.97937a21.69349,21.01362 0 0 0 -9.14245,-1.83802a22.21789,21.52158 0 0 0 -9.14245,1.8046a21.43819,20.76632 0 0 0 -7.17596,4.94595a23.69103,22.94856 0 0 0 -4.69198,7.28526a24.92612,24.14494 0 0 0 -1.69049,8.9896l0,0.16709a25.23662,24.44571 0 0 0 1.69049,9.02302a23.58408,22.84496 0 0 0 4.76098,7.35209a23.23563,22.50743 0 0 0 7.24496,4.97937a22.11784,21.42467 0 0 0 9.14245,1.83802z" fill="#0f206c"/>
       <path stroke="null" id="Path_22827" data-name="Path 22827" d="m877.41404,322.00954a28.3347,27.4467 0 0 1 -20.76889,-8.38807a28.85565,27.95132 0 0 1 -6.07197,-9.19012a31.29824,30.31736 0 0 1 -2.20799,-11.29549l0,-0.16709a30.52889,29.57212 0 0 1 2.20799,-11.22865a29.5284,28.60298 0 0 1 6.07197,-9.25695a28.04146,27.16264 0 0 1 9.28045,-6.24928a28.77975,27.8778 0 0 1 11.76444,-2.27247a35.06217,33.96333 0 0 1 7.17596,0.63495a30.60824,29.64899 0 0 1 5.93397,1.8046a24.88127,24.1015 0 0 1 5.03697,2.80716a45.42592,44.00228 0 0 1 4.48498,3.64263l-4.48498,4.64519a37.43231,36.25919 0 0 0 -8.00396,-5.54749a22.34554,21.64523 0 0 0 -26.21987,4.47809a23.71863,22.97529 0 0 0 -4.72648,7.35209a25.23662,24.44571 0 0 0 -1.69049,9.02302l0,0.16709a25.34357,24.54931 0 0 0 1.69049,9.08986a23.49783,22.76141 0 0 0 4.72648,7.35209a22.38694,21.68533 0 0 0 7.10696,4.94595a21.21049,20.54576 0 0 0 8.90095,1.8046a22.25929,21.56168 0 0 0 10.28095,-2.13879a35.38302,34.27412 0 0 0 8.45246,-5.98193l4.31248,4.07707a37.99121,36.80057 0 0 1 -4.69198,4.04365a27.94486,27.06907 0 0 1 -5.24397,3.07451a28.3071,27.41997 0 0 1 -6.03747,2.00512a30.18735,29.24128 0 0 1 -7.27946,0.76863z" fill="#0f206c"/>
       <path stroke="null" id="Path_22828" data-name="Path 22828" d="m925.02379,264.89714l6.55497,0l0,56.14326l-6.55497,0l0,-56.14326z" fill="#0f206c"/>
       <path stroke="null" id="Path_22829" data-name="Path 22829" d="m982.397,264.49612l6.14097,0l26.42686,56.54428l-7.03796,0l-6.79647,-14.83786l-31.53284,0l-6.86546,14.83786l-6.69297,0l26.35786,-56.54428zm16.14592,36.02526l-13.17893,-28.63974l-13.24793,28.63974l26.42686,0z" fill="#0f206c"/>
       <path stroke="null" id="Path_22830" data-name="Path 22830" d="m1038.76971,264.89714l6.55497,0l0,50.295l32.63683,0l0,5.84826l-39.1573,0l0,-56.14326l-0.0345,0z" fill="#0f206c"/>
      </g>
     </g>
    </g>
   </g>
  </g>
 </g>
</svg>