<svg xmlns="http://www.w3.org/2000/svg" width="309.39" height="93.93">
<symbol id="mastodon-svg-logo-full" viewBox="0 0 309.39 93.93">
  <g id="truth-social-logo" transform="translate(-161.93 21.41)">
    <g id="Group_17" data-name="Group 17" transform="translate(9 -114)">
      <g id="Group_16" data-name="Group 16">
        <g id="Group_14" data-name="Group 14">
          <path id="Path_22820" data-name="Path 22820" d="M172.42,108.37H152.93V92.59h57v15.78H190.44v49.2H172.43v-49.2Z" fill="#fff"/>
          <path id="Path_22821" data-name="Path 22821" d="M214.57,92.59H245.3a38.038,38.038,0,0,1,12.72,1.86,21.844,21.844,0,0,1,8.45,5.2q5.76,5.565,5.75,15.13v.19q0,7.515-3.62,12.44a22.838,22.838,0,0,1-9.75,7.52l15.5,22.65H253.56L240.47,137.9h-7.89v19.68H214.57Zm29.89,31.19c3.09,0,5.48-.7,7.15-2.09a6.932,6.932,0,0,0,2.51-5.62v-.19a6.722,6.722,0,0,0-2.6-5.8,11.879,11.879,0,0,0-7.15-1.9H232.58v15.59h11.88Z" fill="#fff"/>
          <path id="Path_22822" data-name="Path 22822" d="M307.3,158.78a41.593,41.593,0,0,1-12.53-1.76,24.316,24.316,0,0,1-9.47-5.43,24.037,24.037,0,0,1-5.99-9.28,37.952,37.952,0,0,1-2.09-13.23V92.59H295.6V128.7q0,7.05,3.22,10.44a11.4,11.4,0,0,0,8.66,3.39,11.645,11.645,0,0,0,8.66-3.25q3.225-3.255,3.22-10.12V92.59h18.38v36.02a38.218,38.218,0,0,1-2.18,13.6,23.57,23.57,0,0,1-15.69,14.81A42,42,0,0,1,307.3,158.78Z" fill="#fff"/>
          <path id="Path_22823" data-name="Path 22823" d="M361.04,108.37H341.55V92.59h57v15.78H379.06v49.2H361.05v-49.2Z" fill="#fff"/>
          <path id="Path_22824" data-name="Path 22824" d="M403.19,92.59H421.2v24.32h23.11V92.59h18.01v64.98H444.31V132.88H421.2v24.69H403.19Z" fill="#fff"/>
        </g>
        <g id="Group_15" data-name="Group 15">
          <path id="Path_22825" data-name="Path 22825" d="M359.33,186.47a9.916,9.916,0,0,1-3.68-.66,10.616,10.616,0,0,1-3.18-2.03l1.18-1.39a9.949,9.949,0,0,0,2.66,1.79,7.721,7.721,0,0,0,3.1.59,4.294,4.294,0,0,0,2.72-.8,2.506,2.506,0,0,0,1.02-2.05v-.05a2.676,2.676,0,0,0-.19-1.04,2.125,2.125,0,0,0-.67-.85,4.744,4.744,0,0,0-1.34-.7,16.209,16.209,0,0,0-2.18-.6,17.9,17.9,0,0,1-2.51-.72,6.44,6.44,0,0,1-1.77-.98,3.582,3.582,0,0,1-1.03-1.34,4.515,4.515,0,0,1-.34-1.8v-.05a4.118,4.118,0,0,1,.41-1.82,4.348,4.348,0,0,1,1.15-1.45,5.585,5.585,0,0,1,1.75-.96,6.783,6.783,0,0,1,2.21-.35,9.081,9.081,0,0,1,3.23.52,9.792,9.792,0,0,1,2.68,1.55l-1.1,1.46a8.2,8.2,0,0,0-2.36-1.39,7.149,7.149,0,0,0-2.48-.43,4.05,4.05,0,0,0-2.62.78,2.391,2.391,0,0,0-.96,1.93v.05a2.76,2.76,0,0,0,.19,1.07,2.136,2.136,0,0,0,.7.86,5.4,5.4,0,0,0,1.39.72,15.749,15.749,0,0,0,2.28.61,9.931,9.931,0,0,1,4.14,1.73,3.707,3.707,0,0,1,1.33,3.02v.05a4.37,4.37,0,0,1-.43,1.96,4.517,4.517,0,0,1-1.18,1.5,5.173,5.173,0,0,1-1.8.96A8.616,8.616,0,0,1,359.33,186.47Z" fill="#fff"/>
          <path id="Path_22826" data-name="Path 22826" d="M380.31,186.52a8.434,8.434,0,0,1-3.49-.7,8.24,8.24,0,0,1-2.7-1.88,8.4,8.4,0,0,1-1.74-2.76,8.988,8.988,0,0,1-.61-3.3v-.05a9.049,9.049,0,0,1,.62-3.31,8.534,8.534,0,0,1,1.75-2.77,8.648,8.648,0,0,1,2.71-1.9,9.016,9.016,0,0,1,6.99-.01,8.24,8.24,0,0,1,2.7,1.88,8.4,8.4,0,0,1,1.74,2.76,8.988,8.988,0,0,1,.61,3.3c.02.02.02.03,0,.05a9.049,9.049,0,0,1-.62,3.31,8.534,8.534,0,0,1-1.75,2.77,8.648,8.648,0,0,1-2.71,1.9A8.485,8.485,0,0,1,380.31,186.52Zm.05-1.75a6.44,6.44,0,0,0,2.65-.54,6.214,6.214,0,0,0,2.08-1.48,6.867,6.867,0,0,0,1.36-2.18,7.225,7.225,0,0,0,.49-2.69v-.05a7.315,7.315,0,0,0-.49-2.7,6.836,6.836,0,0,0-1.38-2.2,6.735,6.735,0,0,0-2.1-1.49,6.288,6.288,0,0,0-2.65-.55,6.44,6.44,0,0,0-2.65.54,6.214,6.214,0,0,0-2.08,1.48,6.867,6.867,0,0,0-1.36,2.18,7.225,7.225,0,0,0-.49,2.69v.05a7.315,7.315,0,0,0,.49,2.7,6.836,6.836,0,0,0,1.38,2.2,6.735,6.735,0,0,0,2.1,1.49A6.411,6.411,0,0,0,380.36,184.77Z" fill="#fff"/>
          <path id="Path_22827" data-name="Path 22827" d="M404.19,186.52a8.213,8.213,0,0,1-6.02-2.51,8.364,8.364,0,0,1-1.76-2.75,9.072,9.072,0,0,1-.64-3.38v-.05a8.849,8.849,0,0,1,.64-3.36,8.559,8.559,0,0,1,1.76-2.77,8.128,8.128,0,0,1,2.69-1.87,8.342,8.342,0,0,1,3.41-.68,10.163,10.163,0,0,1,2.08.19,8.872,8.872,0,0,1,1.72.54,7.212,7.212,0,0,1,1.46.84,13.167,13.167,0,0,1,1.3,1.09l-1.3,1.39a10.85,10.85,0,0,0-2.32-1.66,6.477,6.477,0,0,0-7.6,1.34,6.875,6.875,0,0,0-1.37,2.2,7.315,7.315,0,0,0-.49,2.7v.05a7.346,7.346,0,0,0,.49,2.72,6.811,6.811,0,0,0,1.37,2.2,6.489,6.489,0,0,0,2.06,1.48,6.148,6.148,0,0,0,2.58.54,6.452,6.452,0,0,0,2.98-.64,10.256,10.256,0,0,0,2.45-1.79l1.25,1.22a11.012,11.012,0,0,1-1.36,1.21,8.1,8.1,0,0,1-1.52.92,8.205,8.205,0,0,1-1.75.6A8.75,8.75,0,0,1,404.19,186.52Z" fill="#fff"/>
          <path id="Path_22828" data-name="Path 22828" d="M417.99,169.43h1.9v16.8h-1.9Z" fill="#fff"/>
          <path id="Path_22829" data-name="Path 22829" d="M434.62,169.31h1.78l7.66,16.92h-2.04l-1.97-4.44h-9.14l-1.99,4.44h-1.94Zm4.68,10.78-3.82-8.57-3.84,8.57Z" fill="#fff"/>
          <path id="Path_22830" data-name="Path 22830" d="M450.96,169.43h1.9v15.05h9.46v1.75H450.97v-16.8Z" fill="#fff"/>
        </g>
      </g>
    </g>
  </g>
</symbol>
</svg>
